Coordinates
version=1
nRows=11
nColumns=46
inDegrees=yes

Units are S.I. units (second, meters, Newtons, ...)
Angles are in degrees.

endheader
time	pelvis_tilt	pelvis_list	pelvis_rotation	pelvis_tx	pelvis_ty	pelvis_tz	bb_angle	bb_tx	bb_ty	bb_tz	hip_flexion_r	hip_adduction_r	hip_rotation_r	knee_angle_r	knee_angle_r_beta	ankle_angle_r	subtalar_angle_r	mtp_angle_r	crank_angle_r	hip_flexion_l	hip_adduction_l	hip_rotation_l	knee_angle_l	knee_angle_l_beta	ankle_angle_l	subtalar_angle_l	mtp_angle_l	crank_angle_l	lumbar_extension	lumbar_bending	lumbar_rotation	arm_flex_r	arm_add_r	arm_rot_r	elbow_flex_r	pro_sup_r	wrist_flex_r	wrist_dev_r	arm_flex_l	arm_add_l	arm_rot_l	elbow_flex_l	pro_sup_l	wrist_flex_l	wrist_dev_l
      0.00000000	    -18.42440278	      7.45750311	      7.21395768	      0.11550447	      1.07926140	     -0.27179692	      0.00000000	      0.50000000	      0.00000000	      0.25000000	     51.58885035	    -16.55082526	      1.58782173	     70.28028733	      1.22662241	     13.93904282	     -4.68751337	      0.00000000	      0.00000000	     70.67736732	     13.92633489	     -0.24624698	     67.47776217	      1.17770912	     27.38619969	    -33.94184483	      0.00000000	      0.00000000	    -48.24448442	     -2.16298172	    -10.16281415	     89.53150241	     -3.20610520	     43.25781380	     16.90601667	     25.04008482	      0.00000000	      0.00000000	     89.68246741	     -1.76374452	     47.01502658	     17.91348949	     24.26382462	      0.00000000	      0.00000000
      0.00500000	    -18.53323386	      7.38994772	      7.21963404	      0.11549121	      1.07906653	     -0.27177813	      0.00000000	      0.50000000	      0.00000000	      0.25000000	     51.71224772	    -16.47435672	      1.56954398	     70.29369909	      1.22685649	     13.76291169	     -4.97358068	      0.00000000	      0.00000000	     70.79415838	     13.89569456	     -0.18689321	     67.46497590	      1.17748596	     27.34219749	    -33.91469595	      0.00000000	      0.00000000	    -48.02222853	     -2.17190828	    -10.06614047	     89.55546467	     -4.17308536	     49.39539323	     16.39098036	     25.61282104	      0.00000000	      0.00000000	     89.69398697	     -2.27243840	     51.71977935	     17.51144800	     23.97574897	      0.00000000	      0.00000000
      0.01000000	    -18.50702820	      7.39855273	      7.19951007	      0.11544169	      1.07913096	     -0.27164507	      0.00000000	      0.50000000	      0.00000000	      0.25000000	     51.69379478	    -16.44679477	      1.59888254	     70.29649692	      1.22690532	     13.75961154	     -4.96964037	      0.00000000	      0.00000000	     70.75960092	     13.87225483	     -0.19231742	     67.44269856	      1.17709715	     27.33166650	    -33.91099464	      0.00000000	      0.00000000	    -48.05499926	     -2.20560094	    -10.04918188	     89.55927570	     -4.23860209	     49.68082322	     16.32975798	     26.00716965	      0.00000000	      0.00000000	     89.69435599	     -2.24679580	     51.49829983	     17.55761337	     24.00047414	      0.00000000	      0.00000000
      0.01500000	    -18.35414522	      7.48912445	      7.05787273	      0.11566429	      1.07946485	     -0.27146977	      0.00000000	      0.50000000	      0.00000000	      0.25000000	     51.55567816	    -16.40743396	      1.71366322	     70.28537609	      1.22671123	     13.71979083	     -5.04848301	      0.00000000	      0.00000000	     70.59505462	     13.69260487	     -0.44260354	     67.33410514	      1.17520183	     27.26062668	    -33.91418926	      0.00000000	      0.00000000	    -48.27176763	     -2.34869355	     -9.98364191	     89.55279499	     -4.00030401	     47.48119773	     16.28254499	     27.03321498	      0.00000000	      0.00000000	     89.69042827	     -1.97490059	     48.95174266	     17.80141165	     25.14781361	      0.00000000	      0.00000000
      0.02000000	    -18.35270115	      7.48106225	      7.11425019	      0.11557731	      1.07951031	     -0.27153309	      0.00000000	      0.50000000	      0.00000000	      0.25000000	     51.53972533	    -16.44731721	      1.67458776	     70.28010784	      1.22661928	     13.75565902	     -5.00603552	      0.00000000	      0.00000000	     70.53198396	     13.78863422	     -0.32010357	     67.27346309	      1.17414343	     27.25686409	    -33.90663557	      0.00000000	      0.00000000	    -48.29738883	     -2.30335482	    -10.03912960	     89.55372664	     -3.95520678	     47.06682427	     16.36026338	     27.25400249	      0.00000000	      0.00000000	     89.68936727	     -1.93432952	     48.46169462	     17.86105035	     25.34426526	      0.00000000	      0.00000000
      0.02500000	    -25.02075397	      7.84312985	      7.08444173	      0.10983143	      1.06561151	     -0.27171936	      0.00000000	      0.50000000	      0.00000000	      0.25000000	     60.59220696	    -15.96395737	      4.48481360	     71.88198844	      1.25457737	     13.00727039	     -5.41000951	      0.00000000	      0.00000000	     78.43354447	     13.62767387	     -0.99660190	     67.33078935	      1.17514396	     26.34408368	    -34.13044813	      0.00000000	      0.00000000	    -89.89012186	     19.30493240	     84.71076007	     55.94266342	     89.88945214	     40.94887300	     95.35084260	     19.85698594	      0.00000000	      0.00000000	     89.63995535	     16.41385637	     18.83898561	     65.44039890	     24.51067091	      0.00000000	      0.00000000
      0.03000000	    -25.00978499	      7.85584801	      7.04048495	      0.10990275	      1.06560236	     -0.27168247	      0.00000000	      0.50000000	      0.00000000	      0.25000000	     60.58945690	    -15.93323591	      4.52484935	     71.89442370	      1.25479441	     13.02003400	     -5.37108901	      0.00000000	      0.00000000	     78.42093670	     13.60423423	     -0.98831063	     67.34634823	      1.17541552	     26.31890763	    -34.14312854	      0.00000000	      0.00000000	    -89.89032945	     19.26347799	     84.65370399	     56.36160844	     89.89128189	     40.50536115	     95.03954882	     21.44697704	      0.00000000	      0.00000000	     89.63965609	     16.19966278	     19.18657763	     65.28293573	     25.93168420	      0.00000000	      0.00000000
      0.03500000	    -25.02219165	      7.83361408	      7.07323618	      0.10984595	      1.06561324	     -0.27163632	      0.00000000	      0.50000000	      0.00000000	      0.25000000	     60.59611786	    -15.93456287	      4.49231717	     71.89742658	      1.25484682	     13.00846857	     -5.41652090	      0.00000000	      0.00000000	     78.41965645	     13.66106077	     -0.87798210	     67.32250814	      1.17499943	     26.32703235	    -34.14238957	      0.00000000	      0.00000000	    -89.89036555	     19.27438846	     84.69847026	     56.42550452	     89.89114226	     40.45080708	     94.99245949	     21.70144605	      0.00000000	      0.00000000	     89.63860114	     16.33076663	     18.92255641	     65.23244898	     26.28896104	      0.00000000	      0.00000000
      0.04000000	    -25.00324938	      7.85006447	      7.03959606	      0.10992042	      1.06562799	     -0.27165102	      0.00000000	      0.50000000	      0.00000000	      0.25000000	     60.58514726	    -15.92398350	      4.51915660	     71.91020648	      1.25506987	     13.02421781	     -5.39506366	      0.00000000	      0.00000000	     78.39912897	     13.61072615	     -0.96050608	     67.32645560	      1.17506832	     26.34615224	    -34.12869256	      0.00000000	      0.00000000	    -89.89028166	     19.25630361	     84.71805880	     56.42069191	     89.89097099	     40.38532503	     94.66464243	     23.53197010	      0.00000000	      0.00000000	     89.64020218	     16.26658847	     19.24601351	     64.85122976	     27.81822812	      0.00000000	      0.00000000
      0.04500000	    -24.99766681	      7.85736247	      7.05043997	      0.10992256	      1.06567653	     -0.27168966	      0.00000000	      0.50000000	      0.00000000	      0.25000000	     60.58114765	    -15.94398082	      4.51174413	     71.91185395	      1.25509862	     12.97398963	     -5.44696789	      0.00000000	      0.00000000	     78.37834562	     13.63924918	     -0.94384108	     67.29922296	      1.17459302	     26.32840484	    -34.13510862	      0.00000000	      0.00000000	    -89.89048699	     19.25682883	     84.80145721	     56.59059268	     89.89094732	     40.18932880	     94.70947716	     23.60661520	      0.00000000	      0.00000000	     89.63905705	     16.54380889	     18.83471403	     64.74339737	     28.13155663	      0.00000000	      0.00000000
      0.05000000	    -25.01890768	      7.83204577	      7.07753674	      0.10986238	      1.06564249	     -0.27164557	      0.00000000	      0.50000000	      0.00000000	      0.25000000	     60.60023510	    -15.93825191	      4.49132513	     71.92267143	      1.25528742	     13.02086909	     -5.39490858	      0.00000000	      0.00000000	     78.39061706	     13.68637072	     -0.83524460	     67.28208756	      1.17429396	     26.30730332	    -34.15407712	      0.00000000	      0.00000000	    -89.89034093	     19.26617231	     84.74645869	     56.87846465	     89.89059934	     39.95713452	     94.73314535	     23.25229097	      0.00000000	      0.00000000	     89.63614326	     16.40119208	     18.90982092	     64.93686954	     28.04930922	      0.00000000	      0.00000000
